<?xml version="1.0" encoding="UTF-8"?>
<svg xmlns="http://www.w3.org/2000/svg" xmlns:xlink="http://www.w3.org/1999/xlink" width="365pt" height="152.53pt" viewBox="0 0 365 152.53" version="1.1">
<defs>
<clipPath id="clip1">
  <path d="M 0 0 L 245 0 L 245 152.53125 L 0 152.53125 Z M 0 0 "/>
</clipPath>
</defs>
<g id="surface1">
<path style=" stroke:none;fill-rule:nonzero;fill:rgb(68.199158%,12.199402%,16.899109%);fill-opacity:1;" d="M 354.777344 101.265625 L 352.296875 101.265625 L 352.296875 107.710938 L 350.132813 107.710938 L 350.132813 101.265625 L 347.652344 101.265625 L 347.652344 99.402344 L 354.773438 99.402344 L 354.773438 101.265625 L 354.777344 101.265625 "/>
<path style=" stroke:none;fill-rule:nonzero;fill:rgb(68.199158%,12.199402%,16.899109%);fill-opacity:1;" d="M 355.742188 99.402344 L 358.929688 99.402344 L 360.359375 104.941406 L 360.382813 104.941406 L 361.8125 99.402344 L 365 99.402344 L 365 107.710938 L 362.976563 107.710938 L 362.976563 101.410156 L 362.953125 101.410156 L 361.210938 107.71875 L 359.554688 107.71875 L 357.808594 101.410156 L 357.785156 101.410156 L 357.785156 107.71875 L 355.761719 107.71875 L 355.761719 99.402344 L 355.742188 99.402344 "/>
<path style=" stroke:none;fill-rule:nonzero;fill:rgb(68.199158%,12.199402%,16.899109%);fill-opacity:1;" d="M 269.074219 107.242188 C 266.1875 108.492188 263.078125 109.148438 259.929688 109.167969 C 255.070313 109.167969 250.703125 108.320313 246.824219 106.632813 C 243.082031 105.039063 239.734375 102.65625 237.003906 99.640625 C 234.292969 96.59375 232.210938 93.042969 230.878906 89.1875 C 229.429688 85.023438 228.707031 80.640625 228.746094 76.230469 C 228.703125 71.738281 229.421875 67.269531 230.871094 63.015625 C 232.199219 59.105469 234.273438 55.492188 236.984375 52.378906 C 239.691406 49.3125 243.039063 46.882813 246.789063 45.253906 C 250.667969 43.535156 255.035156 42.671875 259.890625 42.671875 C 263.097656 42.664063 266.285156 43.160156 269.335938 44.140625 C 272.328125 45.085938 275.128906 46.546875 277.617188 48.457031 C 282.832031 52.484375 286.105469 58.523438 286.636719 65.09375 L 273.320313 65.09375 C 272.488281 61.539063 270.890625 58.875 268.519531 57.097656 C 266.148438 55.324219 263.277344 54.433594 259.902344 54.433594 C 256.753906 54.433594 254.089844 55.042969 251.90625 56.257813 C 249.757813 57.4375 247.929688 59.117188 246.574219 61.15625 C 245.175781 63.289063 244.167969 65.65625 243.597656 68.144531 C 242.972656 70.796875 242.660156 73.515625 242.667969 76.238281 C 242.660156 78.863281 242.976563 81.480469 243.601563 84.03125 C 244.183594 86.457031 245.191406 88.765625 246.578125 90.839844 C 247.945313 92.851563 249.773438 94.511719 251.910156 95.675781 C 254.101563 96.890625 256.769531 97.5 259.914063 97.5 C 264.539063 97.5 268.113281 96.332031 270.632813 94 C 273.148438 91.664063 274.617188 88.289063 275.039063 83.871094 L 261.003906 83.871094 L 261.003906 73.417969 L 287.617188 73.417969 L 287.617188 107.71875 L 278.757813 107.71875 L 277.34375 100.519531 C 274.855469 103.726563 272.097656 105.96875 269.074219 107.242188 "/>
<path style=" stroke:none;fill-rule:nonzero;fill:rgb(68.199158%,12.199402%,16.899109%);fill-opacity:1;" d="M 310.234375 44.257813 L 310.234375 95.910156 L 341.152344 95.910156 L 341.152344 107.683594 L 296.316406 107.683594 L 296.316406 44.277344 L 310.234375 44.277344 L 310.234375 44.257813 "/>
<g clip-path="url(#clip1)" clip-rule="nonzero">
<path style=" stroke:none;fill-rule:nonzero;fill:rgb(68.199158%,12.199402%,16.899109%);fill-opacity:1;" d="M 244.425781 115.574219 C 223.132813 128.523438 191.242188 135.894531 155.664063 135.894531 C 91.5625 135.886719 39.589844 109.195313 39.589844 76.265625 C 39.589844 43.339844 91.5625 16.644531 155.664063 16.644531 C 191.363281 16.644531 223.402344 24.152344 244.683594 37.183594 C 221.445313 15.351563 179.777344 0.0078125 132.132813 0.00390625 C 59.152344 -0.0078125 0.00390625 34.128906 0 76.246094 C -0.00390625 118.363281 59.152344 152.519531 132.109375 152.53125 C 179.558594 152.535156 221.125 137.246094 244.425781 115.574219 "/>
</g>
<path style=" stroke:none;fill-rule:nonzero;fill:rgb(68.199158%,12.199402%,16.899109%);fill-opacity:1;" d="M 127.488281 39.324219 L 115.253906 92.273438 L 100.476563 39.324219 L 89.257813 39.324219 L 74.515625 92.277344 L 62.242188 39.324219 L 50.683594 39.324219 L 68.835938 108.339844 L 79.683594 108.339844 L 94.960938 54.132813 L 110.050781 108.339844 L 120.925781 108.339844 L 139.71875 39.324219 L 127.488281 39.324219 "/>
<path style=" stroke:none;fill-rule:nonzero;fill:rgb(68.199158%,12.199402%,16.899109%);fill-opacity:1;" d="M 154.101563 69.117188 C 161.363281 69.117188 165.234375 73.023438 165.953125 81.054688 L 142.476563 81.054688 C 142.820313 74.515625 148.003906 69.117188 154.101563 69.117188 Z M 170.292969 68.375 C 168.675781 66.054688 166.503906 64.171875 163.976563 62.902344 C 161.21875 61.585938 158.191406 60.929688 155.140625 60.984375 C 151.429688 60.984375 148.078125 61.660156 145.195313 62.984375 C 142.472656 64.234375 140.09375 66.121094 138.253906 68.488281 C 134.792969 72.917969 132.964844 79.15625 132.964844 86.53125 C 132.941406 89.636719 133.414063 92.722656 134.363281 95.675781 C 135.214844 98.359375 136.59375 100.847656 138.410156 102.996094 C 142.121094 107.3125 147.414063 109.59375 153.714844 109.59375 C 157.023438 109.59375 159.726563 109.253906 161.972656 108.53125 C 163.515625 108.039063 164.976563 107.320313 166.308594 106.402344 C 167.707031 105.476563 168.96875 104.363281 170.0625 103.097656 C 171.027344 101.976563 171.871094 100.753906 172.578125 99.453125 C 173.867188 97.09375 174.488281 94.878906 174.628906 93.71875 L 174.722656 92.945313 L 165.710938 92.945313 L 165.660156 93.582031 C 165.4375 96.507813 161.589844 101.738281 154.742188 101.738281 C 144.964844 101.738281 142.621094 94.65625 142.46875 88.429688 L 175.238281 88.429688 L 175.238281 87.738281 C 175.28125 84.066406 174.871094 80.40625 174.019531 76.832031 C 173.3125 73.804688 172.046875 70.9375 170.292969 68.375 "/>
<path style=" stroke:none;fill-rule:nonzero;fill:rgb(68.199158%,12.199402%,16.899109%);fill-opacity:1;" d="M 212.535156 85.195313 C 212.535156 90.117188 211.542969 94.242188 209.671875 97.125 C 207.675781 100.199219 204.78125 101.753906 201.066406 101.753906 C 195.691406 101.753906 189.421875 97.996094 189.421875 87.414063 C 189.421875 82.355469 190.050781 78.441406 191.339844 75.484375 C 193.199219 71.214844 196.328125 69.140625 200.894531 69.140625 C 205.757813 69.140625 209.007813 71.046875 210.832031 74.964844 C 212.34375 78.207031 212.535156 82.132813 212.535156 85.195313 Z M 220.601563 75.011719 C 219.796875 72.359375 218.503906 69.878906 216.777344 67.710938 C 215.113281 65.625 212.996094 63.945313 210.585938 62.796875 C 207.984375 61.585938 205.140625 60.976563 202.273438 61.011719 C 199.644531 61.019531 197.054688 61.636719 194.707031 62.820313 C 192.816406 63.808594 191.140625 65.167969 189.777344 66.808594 L 189.777344 45.636719 L 180.789063 45.636719 L 180.789063 108.367188 L 189.339844 108.367188 L 189.339844 104.082031 C 190.183594 105.203125 191.191406 106.191406 192.328125 107.015625 C 194.753906 108.75 197.753906 109.632813 201.242188 109.632813 C 204.992188 109.632813 208.339844 108.796875 211.1875 107.144531 C 213.800781 105.597656 215.992188 103.433594 217.574219 100.839844 C 219.136719 98.28125 220.273438 95.484375 220.929688 92.558594 C 221.585938 89.753906 221.914063 86.882813 221.910156 84 C 221.933594 80.953125 221.488281 77.921875 220.601563 75.011719 "/>
</g>
</svg>
